<?xml version="1.0" encoding="UTF-8"?>
<svg version="1.1" xmlns="http://www.w3.org/2000/svg" width="512" height="512">
<path d="M0 0 C1.22818451 -0.0112793 2.45636902 -0.02255859 3.72177124 -0.03417969 C5.07989738 -0.02640274 6.43802119 -0.01821008 7.79614258 -0.00964355 C9.22865511 -0.01506461 10.66116206 -0.02218719 12.09365845 -0.03088379 C15.98213489 -0.04912236 19.87018692 -0.04204767 23.75867081 -0.02936745 C27.82740678 -0.01924243 31.89610635 -0.02863173 35.96484375 -0.03491211 C42.79767381 -0.04218999 49.63033095 -0.0325972 56.46313477 -0.0135498 C64.36354143 0.00821932 72.26353519 0.00116804 80.16393185 -0.02085543 C86.94622044 -0.0390055 93.72838471 -0.04156971 100.51068974 -0.03110075 C104.56183198 -0.02486361 108.61278013 -0.0240361 112.66390991 -0.0372467 C116.47257191 -0.04879901 120.28070143 -0.04079149 124.08930588 -0.01766968 C125.48731985 -0.01237917 126.88537861 -0.0139023 128.28337479 -0.02272034 C130.19101617 -0.03364394 132.09875544 -0.01751878 134.00634766 0 C135.07411942 0.0015081 136.14189117 0.0030162 137.24201965 0.00457001 C140.69731995 0.63447896 141.8545104 1.78326694 144.00317383 4.50793457 C145.45562751 8.5021822 145.17504879 10.11938515 143.44458008 14.03137207 C140.65284468 19.38699611 137.28400842 24.36098057 133.94067383 29.38293457 C129.32766668 36.38058001 124.77294771 43.39520813 120.44067383 50.57043457 C114.71731286 60.03894785 108.77020954 69.35938385 102.81030273 78.68029785 C99.82703231 83.3482576 96.85242684 88.02172586 93.87817383 92.69543457 C93.29720947 93.60817139 92.71624512 94.5209082 92.11767578 95.46130371 C86.88293183 103.68921915 81.67333121 111.93287209 76.47094727 120.18127441 C73.48815289 124.90948972 70.50216059 129.63568714 67.51586914 134.36169434 C64.93786438 138.44212647 62.36275643 142.52434504 59.79223633 146.60949707 C59.26243164 147.45061035 58.73262695 148.29172363 58.18676758 149.1583252 C57.18580938 150.74756584 56.18573313 152.33736251 55.18676758 153.92785645 C52.78127834 157.74497032 50.33634992 161.52982754 47.82885742 165.28088379 C47.29714935 166.07678925 46.76544128 166.8726947 46.21762085 167.69271851 C45.81685333 168.29173981 45.41608582 168.89076111 45.00317383 169.50793457 C46.25740646 169.51380081 47.5116391 169.51966705 48.80387878 169.52571106 C60.6195125 169.58290535 72.43496159 169.65564989 84.25040722 169.74364948 C90.32496504 169.78839124 96.3994552 169.82763914 102.47412109 169.85437012 C108.3356892 169.88036487 114.19699745 169.92074053 120.05840492 169.97112083 C122.2954822 169.98781539 124.53260445 169.99931351 126.76973534 170.00554848 C129.90145533 170.0151612 133.03250663 170.04318741 136.1640625 170.07556152 C137.09051071 170.07412643 138.01695892 170.07269135 138.97148132 170.07121277 C143.80137275 170.14189992 147.08059668 170.36658711 151.00317383 173.50793457 C153.19836211 176.20202928 152.99672359 177.7002323 152.87817383 181.23449707 C152.20348461 186.09875321 149.92785654 188.71212444 146.62817383 192.19543457 C145.52988501 193.41361456 144.4322431 194.63237805 143.33520508 195.85168457 C142.77784668 196.46012207 142.22048828 197.06855957 141.64624023 197.69543457 C139.13167641 200.46930111 136.72327866 203.32880895 134.31567383 206.19543457 C133.86071533 206.7332959 133.40575684 207.27115723 132.93701172 207.82531738 C130.11078045 211.17017456 127.32787141 214.54733539 124.56567383 217.94543457 C120.15404328 223.36364036 115.60993741 228.66064307 111.05395508 233.95715332 C104.80890062 241.2182446 98.60686233 248.51346886 92.56567383 255.94543457 C88.15404328 261.36364036 83.60993741 266.66064307 79.05395508 271.95715332 C72.80890062 279.2182446 66.60686233 286.51346886 60.56567383 293.94543457 C56.15404328 299.36364036 51.60993741 304.66064307 47.05395508 309.95715332 C40.80890062 317.2182446 34.60686233 324.51346886 28.56567383 331.94543457 C24.15404328 337.36364036 19.60993741 342.66064307 15.05395508 347.95715332 C8.80890062 355.2182446 2.60686233 362.51346886 -3.43432617 369.94543457 C-7.84595672 375.36364036 -12.39006259 380.66064307 -16.94604492 385.95715332 C-23.19109938 393.2182446 -29.39313767 400.51346886 -35.43432617 407.94543457 C-39.84595672 413.36364036 -44.39006259 418.66064307 -48.94604492 423.95715332 C-55.19109938 431.2182446 -61.39313767 438.51346886 -67.43432617 445.94543457 C-71.84595672 451.36364036 -76.39006259 456.66064307 -80.94604492 461.95715332 C-87.19109938 469.2182446 -93.39313767 476.51346886 -99.43432617 483.94543457 C-104.39449417 490.0365565 -109.5064062 495.99290505 -114.64135742 501.93664551 C-115.84723499 503.33452519 -117.04743759 504.73729585 -118.24682617 506.14074707 C-119.17495117 507.21969238 -119.17495117 507.21969238 -120.12182617 508.32043457 C-120.6400293 508.92500488 -121.15823242 509.5295752 -121.69213867 510.15246582 C-124.03322816 512.58467556 -126.11572775 512.74230573 -129.37182617 512.88293457 C-132.89298915 512.83190322 -133.71187724 512.73728371 -136.55932617 510.44543457 C-138.7366894 505.99604014 -138.70938959 502.62575666 -137.15625 498.00964355 C-135.87445372 494.89469108 -134.51083778 491.82661391 -133.12182617 488.75793457 C-132.01017177 486.23416495 -130.90097457 483.70940223 -129.79370117 481.18371582 C-129.4939035 480.50337784 -129.19410583 479.82303986 -128.88522339 479.12208557 C-125.32045921 471.01584827 -121.91616677 462.84292746 -118.50799561 454.66992188 C-117.35865856 451.91385919 -116.20754265 449.15854581 -115.0559082 446.40344238 C-113.48455207 442.64407122 -111.91378403 438.88445533 -110.34350586 435.12463379 C-106.9391418 426.97471244 -103.5274255 418.82786953 -100.11605835 410.68087769 C-98.24148738 406.20403931 -96.3671447 401.72710539 -94.49291992 397.25012207 C-94.12143326 396.36275864 -93.74994659 395.4753952 -93.36720276 394.56114197 C-91.12597663 389.20701563 -88.88621316 383.85228005 -86.64761353 378.49705505 C-77.71287181 357.1234039 -68.74481029 335.76433287 -59.71582031 314.43029785 C-54.09471074 301.14279473 -48.53431234 287.83049406 -42.99682617 274.50793457 C-44.07566574 274.51237579 -45.15450531 274.51681702 -46.26603699 274.52139282 C-56.43332248 274.56193708 -66.60059157 274.59191812 -76.76793957 274.61155891 C-81.9950669 274.62199587 -87.22212897 274.63615357 -92.44921875 274.65881348 C-97.49368748 274.68054484 -102.53809343 274.69250386 -107.58260536 274.69768906 C-109.50712383 274.70138427 -111.43163886 274.70860006 -113.3561306 274.71939468 C-116.05178629 274.73391342 -118.74718259 274.73591234 -121.44287109 274.73498535 C-122.23840897 274.7421759 -123.03394684 274.74936646 -123.85359192 274.7567749 C-129.4975727 274.73577469 -133.1844369 274.17724048 -137.37182617 270.32043457 C-139.12394034 267.28792928 -139.17050532 265.9876002 -138.57875502 262.61364305 C-137.34431691 258.14683101 -135.12886186 254.09370615 -133.04411316 249.97431946 C-132.5233863 248.92577134 -132.00265943 247.87722323 -131.46615297 246.79690093 C-130.02394478 243.89795589 -128.57288229 241.00365145 -127.11789405 238.11110604 C-125.54892769 234.98656282 -123.99151024 231.85626969 -122.43260193 228.72669983 C-119.3790742 222.60127617 -116.31482543 216.48127691 -113.24676796 210.36312012 C-110.75364104 205.39089672 -108.26457828 200.41665858 -105.77840614 195.44095421 C-105.42445029 194.73256505 -105.07049443 194.0241759 -104.70581264 193.2943204 C-103.98676953 191.85520784 -103.26773803 190.41608949 -102.54871801 188.97696539 C-96.19214795 176.25526004 -89.82549682 163.53862607 -83.45361328 150.82458496 C-77.27065106 138.48750473 -71.09641508 126.14610577 -64.93115234 113.8001709 C-58.21660661 100.35432016 -51.49698176 86.91103004 -44.76872808 73.47203273 C-44.05137934 72.03917964 -43.33403447 70.60632461 -42.6166935 69.17346764 C-42.26374522 68.46848317 -41.91079694 67.7634987 -41.54715326 67.03715107 C-39.06003669 62.06852446 -36.57649058 57.0981229 -34.09425926 52.12705421 C-31.06967609 46.07015826 -28.03932415 40.0161904 -25.00158521 33.96588115 C-23.451789 30.87879132 -21.9045693 27.79048132 -20.36424255 24.69865417 C-18.69368578 21.34888324 -17.01340194 18.00417544 -15.33049011 14.66059875 C-14.84478222 13.6809422 -14.35907432 12.70128564 -13.858648 11.69194251 C-13.40542587 10.79654594 -12.95220374 9.90114937 -12.48524761 8.97861958 C-12.09847495 8.20626573 -11.71170228 7.43391188 -11.31320924 6.63815337 C-8.22100457 1.63423566 -5.87746679 0.00830123 0 0 Z " fill="#FEDC09" transform="translate(248.996826171875,-0.5079345703125)"/>
<path d="M0 0 C1.22818451 -0.0112793 2.45636902 -0.02255859 3.72177124 -0.03417969 C5.07989738 -0.02640274 6.43802119 -0.01821008 7.79614258 -0.00964355 C9.22865511 -0.01506461 10.66116206 -0.02218719 12.09365845 -0.03088379 C15.98213489 -0.04912236 19.87018692 -0.04204767 23.75867081 -0.02936745 C27.82740678 -0.01924243 31.89610635 -0.02863173 35.96484375 -0.03491211 C42.79767381 -0.04218999 49.63033095 -0.0325972 56.46313477 -0.0135498 C64.36354143 0.00821932 72.26353519 0.00116804 80.16393185 -0.02085543 C86.94622044 -0.0390055 93.72838471 -0.04156971 100.51068974 -0.03110075 C104.56183198 -0.02486361 108.61278013 -0.0240361 112.66390991 -0.0372467 C116.47257191 -0.04879901 120.28070143 -0.04079149 124.08930588 -0.01766968 C125.48731985 -0.01237917 126.88537861 -0.0139023 128.28337479 -0.02272034 C130.19101617 -0.03364394 132.09875544 -0.01751878 134.00634766 0 C135.07411942 0.0015081 136.14189117 0.0030162 137.24201965 0.00457001 C140.69731995 0.63447896 141.8545104 1.78326694 144.00317383 4.50793457 C145.45562751 8.5021822 145.17504879 10.11938515 143.44458008 14.03137207 C140.65284468 19.38699611 137.28400842 24.36098057 133.94067383 29.38293457 C129.32766668 36.38058001 124.77294771 43.39520813 120.44067383 50.57043457 C114.71731286 60.03894785 108.77020954 69.35938385 102.81030273 78.68029785 C99.82703231 83.3482576 96.85242684 88.02172586 93.87817383 92.69543457 C93.29720947 93.60817139 92.71624512 94.5209082 92.11767578 95.46130371 C86.88293183 103.68921915 81.67333121 111.93287209 76.47094727 120.18127441 C73.48815289 124.90948972 70.50216059 129.63568714 67.51586914 134.36169434 C64.93786438 138.44212647 62.36275643 142.52434504 59.79223633 146.60949707 C59.26243164 147.45061035 58.73262695 148.29172363 58.18676758 149.1583252 C57.18580938 150.74756584 56.18573313 152.33736251 55.18676758 153.92785645 C52.78127834 157.74497032 50.33634992 161.52982754 47.82885742 165.28088379 C47.29714935 166.07678925 46.76544128 166.8726947 46.21762085 167.69271851 C45.81685333 168.29173981 45.41608582 168.89076111 45.00317383 169.50793457 C46.25740646 169.51380081 47.5116391 169.51966705 48.80387878 169.52571106 C60.6195125 169.58290535 72.43496159 169.65564989 84.25040722 169.74364948 C90.32496504 169.78839124 96.3994552 169.82763914 102.47412109 169.85437012 C108.3356892 169.88036487 114.19699745 169.92074053 120.05840492 169.97112083 C122.2954822 169.98781539 124.53260445 169.99931351 126.76973534 170.00554848 C129.90145533 170.0151612 133.03250663 170.04318741 136.1640625 170.07556152 C137.09051071 170.07412643 138.01695892 170.07269135 138.97148132 170.07121277 C143.80137275 170.14189992 147.08059668 170.36658711 151.00317383 173.50793457 C153.19836211 176.20202928 152.99672359 177.7002323 152.87817383 181.23449707 C152.20348461 186.09875321 149.92785654 188.71212444 146.62817383 192.19543457 C145.52988501 193.41361456 144.4322431 194.63237805 143.33520508 195.85168457 C142.77784668 196.46012207 142.22048828 197.06855957 141.64624023 197.69543457 C139.13167641 200.46930111 136.72327866 203.32880895 134.31567383 206.19543457 C133.86071533 206.7332959 133.40575684 207.27115723 132.93701172 207.82531738 C130.11078045 211.17017456 127.32787141 214.54733539 124.56567383 217.94543457 C120.15404328 223.36364036 115.60993741 228.66064307 111.05395508 233.95715332 C104.80890062 241.2182446 98.60686233 248.51346886 92.56567383 255.94543457 C88.15404328 261.36364036 83.60993741 266.66064307 79.05395508 271.95715332 C72.80890062 279.2182446 66.60686233 286.51346886 60.56567383 293.94543457 C56.15404328 299.36364036 51.60993741 304.66064307 47.05395508 309.95715332 C40.80890062 317.2182446 34.60686233 324.51346886 28.56567383 331.94543457 C24.15404328 337.36364036 19.60993741 342.66064307 15.05395508 347.95715332 C8.80890062 355.2182446 2.60686233 362.51346886 -3.43432617 369.94543457 C-7.84595672 375.36364036 -12.39006259 380.66064307 -16.94604492 385.95715332 C-23.19109938 393.2182446 -29.39313767 400.51346886 -35.43432617 407.94543457 C-39.84595672 413.36364036 -44.39006259 418.66064307 -48.94604492 423.95715332 C-55.19109938 431.2182446 -61.39313767 438.51346886 -67.43432617 445.94543457 C-71.84595672 451.36364036 -76.39006259 456.66064307 -80.94604492 461.95715332 C-87.19109938 469.2182446 -93.39313767 476.51346886 -99.43432617 483.94543457 C-104.39449417 490.0365565 -109.5064062 495.99290505 -114.64135742 501.93664551 C-115.84723499 503.33452519 -117.04743759 504.73729585 -118.24682617 506.14074707 C-119.17495117 507.21969238 -119.17495117 507.21969238 -120.12182617 508.32043457 C-120.6400293 508.92500488 -121.15823242 509.5295752 -121.69213867 510.15246582 C-124.03322816 512.58467556 -126.11572775 512.74230573 -129.37182617 512.88293457 C-132.89298915 512.83190322 -133.71187724 512.73728371 -136.55932617 510.44543457 C-138.7366894 505.99604014 -138.70938959 502.62575666 -137.15625 498.00964355 C-135.87445372 494.89469108 -134.51083778 491.82661391 -133.12182617 488.75793457 C-132.01017177 486.23416495 -130.90097457 483.70940223 -129.79370117 481.18371582 C-129.4939035 480.50337784 -129.19410583 479.82303986 -128.88522339 479.12208557 C-125.32045921 471.01584827 -121.91616677 462.84292746 -118.50799561 454.66992188 C-117.35865856 451.91385919 -116.20754265 449.15854581 -115.0559082 446.40344238 C-113.48455207 442.64407122 -111.91378403 438.88445533 -110.34350586 435.12463379 C-106.9391418 426.97471244 -103.5274255 418.82786953 -100.11605835 410.68087769 C-98.24148738 406.20403931 -96.3671447 401.72710539 -94.49291992 397.25012207 C-94.12143326 396.36275864 -93.74994659 395.4753952 -93.36720276 394.56114197 C-91.12597663 389.20701563 -88.88621316 383.85228005 -86.64761353 378.49705505 C-77.71287181 357.1234039 -68.74481029 335.76433287 -59.71582031 314.43029785 C-54.09471074 301.14279473 -48.53431234 287.83049406 -42.99682617 274.50793457 C-44.07566574 274.51237579 -45.15450531 274.51681702 -46.26603699 274.52139282 C-56.43332248 274.56193708 -66.60059157 274.59191812 -76.76793957 274.61155891 C-81.9950669 274.62199587 -87.22212897 274.63615357 -92.44921875 274.65881348 C-97.49368748 274.68054484 -102.53809343 274.69250386 -107.58260536 274.69768906 C-109.50712383 274.70138427 -111.43163886 274.70860006 -113.3561306 274.71939468 C-116.05178629 274.73391342 -118.74718259 274.73591234 -121.44287109 274.73498535 C-122.23840897 274.7421759 -123.03394684 274.74936646 -123.85359192 274.7567749 C-129.4975727 274.73577469 -133.1844369 274.17724048 -137.37182617 270.32043457 C-139.12394034 267.28792928 -139.17050532 265.9876002 -138.57875502 262.61364305 C-137.34431691 258.14683101 -135.12886186 254.09370615 -133.04411316 249.97431946 C-132.5233863 248.92577134 -132.00265943 247.87722323 -131.46615297 246.79690093 C-130.02394478 243.89795589 -128.57288229 241.00365145 -127.11789405 238.11110604 C-125.54892769 234.98656282 -123.99151024 231.85626969 -122.43260193 228.72669983 C-119.3790742 222.60127617 -116.31482543 216.48127691 -113.24676796 210.36312012 C-110.75364104 205.39089672 -108.26457828 200.41665858 -105.77840614 195.44095421 C-105.42445029 194.73256505 -105.07049443 194.0241759 -104.70581264 193.2943204 C-103.98676953 191.85520784 -103.26773803 190.41608949 -102.54871801 188.97696539 C-96.19214795 176.25526004 -89.82549682 163.53862607 -83.45361328 150.82458496 C-77.27065106 138.48750473 -71.09641508 126.14610577 -64.93115234 113.8001709 C-58.21660661 100.35432016 -51.49698176 86.91103004 -44.76872808 73.47203273 C-44.05137934 72.03917964 -43.33403447 70.60632461 -42.6166935 69.17346764 C-42.26374522 68.46848317 -41.91079694 67.7634987 -41.54715326 67.03715107 C-39.06003669 62.06852446 -36.57649058 57.0981229 -34.09425926 52.12705421 C-31.06967609 46.07015826 -28.03932415 40.0161904 -25.00158521 33.96588115 C-23.451789 30.87879132 -21.9045693 27.79048132 -20.36424255 24.69865417 C-18.69368578 21.34888324 -17.01340194 18.00417544 -15.33049011 14.66059875 C-14.84478222 13.6809422 -14.35907432 12.70128564 -13.858648 11.69194251 C-13.40542587 10.79654594 -12.95220374 9.90114937 -12.48524761 8.97861958 C-12.09847495 8.20626573 -11.71170228 7.43391188 -11.31320924 6.63815337 C-8.22100457 1.63423566 -5.87746679 0.00830123 0 0 Z M-0.99682617 25.50793457 C-1.39136279 26.24575232 -1.78589942 26.98357006 -2.19239169 27.74374592 C-3.46524136 30.18427452 -4.69934681 32.64147336 -5.92597961 35.10554504 C-6.63067525 36.509198 -6.63067525 36.509198 -7.34960717 37.94120759 C-8.91330016 41.05832439 -10.47130269 44.17824919 -12.02929688 47.29821777 C-13.15284776 49.54096996 -14.27673228 51.78355503 -15.40092468 54.02598572 C-18.12993166 59.4720176 -20.8551658 64.9199223 -23.57844243 70.36882148 C-25.79100479 74.79573221 -28.00498378 79.22193165 -30.21996117 83.64763451 C-30.5356749 84.27846678 -30.85138863 84.90929906 -31.17666944 85.55924746 C-31.81807883 86.84085446 -32.45948917 88.122461 -33.10090043 89.40406706 C-39.10613988 101.40368652 -45.10617733 113.40590135 -51.10463139 125.40891381 C-56.59544606 136.3957215 -62.09284166 147.37922104 -67.59332023 158.36119328 C-73.24357863 169.64235745 -78.88940742 180.92572805 -84.53042096 192.21151799 C-87.69666099 198.54591265 -90.86466728 204.87940911 -94.03731728 211.21059608 C-97.01662742 217.15609662 -99.98970554 223.1046834 -102.95852852 229.05542946 C-104.05135857 231.2434668 -105.14625523 233.43047331 -106.24332047 235.61639023 C-107.73528399 238.58994636 -109.21987971 241.56706458 -110.70259094 244.54524231 C-111.14274845 245.41818304 -111.58290596 246.29112377 -112.03640157 247.19051725 C-112.62743697 248.38339787 -112.62743697 248.38339787 -113.23041248 249.60037708 C-113.57400706 250.28751122 -113.91760164 250.97464536 -114.27160817 251.68260175 C-115.18144236 253.64524921 -115.18144236 253.64524921 -114.99682617 256.50793457 C-113.89070984 256.51380081 -112.78459351 256.51966705 -111.6449585 256.52571106 C-101.22703053 256.58289385 -90.80931219 256.65563218 -80.39159775 256.74364948 C-75.03557587 256.78840022 -69.67963089 256.827646 -64.32348633 256.85437012 C-59.15567628 256.88035611 -53.9881614 256.9207252 -48.82053375 256.97112083 C-46.84778766 256.9878214 -44.87499047 256.99931577 -42.90218353 257.00554848 C-40.1414232 257.01515487 -37.38142348 257.04317248 -34.62084961 257.07556152 C-33.80301498 257.07412643 -32.98518036 257.07269135 -32.14256287 257.07121277 C-28.8765092 257.12549766 -26.41224441 257.29209719 -23.48806763 258.81140137 C-21.43915936 261.14237258 -21.46605133 263.20855936 -21.62774658 266.23043823 C-22.32135755 270.51053524 -24.01421352 274.32232851 -25.73901367 278.27746582 C-26.1338092 279.21421143 -26.52860474 280.15095703 -26.93536377 281.11608887 C-28.23437184 284.18996863 -29.55307602 287.25497919 -30.87182617 290.32043457 C-31.78846188 292.48022697 -32.70364384 294.64063688 -33.61743164 296.80163574 C-35.4918498 301.23001479 -37.37330699 305.65529672 -39.26049805 310.07824707 C-42.89217937 318.59816764 -46.45873091 327.14503047 -50.02471924 335.69259644 C-51.86812667 340.1080059 -53.71781733 344.52078083 -55.56713867 348.93371582 C-58.54220363 356.03481533 -61.51619014 363.13636516 -64.48901367 370.23840332 C-64.86143692 371.12805283 -65.23386017 372.01770233 -65.61756897 372.93431091 C-67.48375207 377.39244443 -69.3494671 381.85077296 -71.21435547 386.30944824 C-74.72034207 394.69035048 -78.23093793 403.06924007 -81.75643921 411.44195557 C-83.41774934 415.38813201 -85.07664233 419.3353225 -86.73535156 423.28259277 C-87.5251599 425.16021695 -88.31614644 427.03734603 -89.10839844 428.91394043 C-90.20833044 431.5195383 -91.3041527 434.12683068 -92.39916992 436.73449707 C-92.72022202 437.49199249 -93.04127411 438.24948792 -93.37205505 439.02993774 C-95.50078775 444.11427005 -97.32142582 449.2571983 -98.99682617 454.50793457 C-95.19291142 450.80120012 -91.68507363 446.92914778 -88.24682617 442.88293457 C-87.71951904 442.26539307 -87.19221191 441.64785156 -86.64892578 441.01159668 C-83.57446579 437.3997709 -80.54733247 433.75435361 -77.55932617 430.07043457 C-73.41686238 424.96565614 -69.11563518 420.01170775 -64.79614258 415.05725098 C-60.87420513 410.54834131 -57.06643502 405.9608644 -53.30541992 401.31652832 C-50.07753264 397.38953855 -46.75451195 393.54711398 -43.43579102 389.69689941 C-40.42424587 386.19539204 -37.46616408 382.65997936 -34.55932617 379.07043457 C-30.41686238 373.96565614 -26.11563518 369.01170775 -21.79614258 364.05725098 C-17.87180959 359.54558724 -14.0624858 354.95458951 -10.29760742 350.30871582 C-6.6191023 345.83080721 -2.82642961 341.45194162 0.95239258 337.05871582 C7.1783975 329.81977333 13.36403623 322.54927548 19.37817383 315.13293457 C23.54473806 310.01059933 27.86518664 305.03376079 32.20361328 300.05749512 C36.12566923 295.548535 39.93349248 290.96095393 43.69458008 286.31652832 C46.92246736 282.38953855 50.24548805 278.54711398 53.56420898 274.69689941 C56.57575413 271.19539204 59.53383592 267.65997936 62.44067383 264.07043457 C66.58313762 258.96565614 70.88436482 254.01170775 75.20385742 249.05725098 C79.12819041 244.54558724 82.9375142 239.95458951 86.70239258 235.30871582 C90.3808977 230.83080721 94.17357039 226.45194162 97.95239258 222.05871582 C112.19865018 205.83360947 112.19865018 205.83360947 125.00317383 188.50793457 C123.74894119 188.50650955 122.49470856 188.50508453 121.20246887 188.50361633 C109.38678364 188.48695225 97.57144306 188.44419637 85.75594044 188.375844 C79.68131884 188.34154243 73.6069496 188.31645903 67.53222656 188.31237793 C61.67054955 188.30810188 55.80944211 188.27969591 49.94794273 188.23450279 C47.71086633 188.22150573 45.47372184 188.21722788 43.23661232 188.22178078 C40.10454306 188.22667085 36.97414866 188.2006635 33.84228516 188.1673584 C32.91583694 188.17598404 31.98938873 188.18460968 31.03486633 188.1934967 C26.52495368 188.11301935 24.60348372 187.97177583 20.9316864 185.13468933 C19.00317383 182.50793457 19.00317383 182.50793457 18.30786133 179.82043457 C19.38988929 174.66560473 22.21905168 170.84105979 25.12817383 166.50793457 C26.4228026 164.52900202 27.71706334 162.54982867 29.01098633 160.57043457 C29.67646484 159.5623877 30.34194336 158.55434082 31.02758789 157.51574707 C34.07243719 152.87999035 37.03586331 148.19353862 40.00317383 143.50793457 C41.1720124 141.67041995 42.34128442 139.83318098 43.51098633 137.99621582 C45.81916269 134.36917349 48.12638701 130.74152821 50.43286133 127.11340332 C57.28244796 116.34087161 64.15264863 105.58178632 71.03735352 94.83166504 C77.13840977 85.30263493 83.21512144 75.75825086 89.28540039 66.20959473 C91.60657851 62.55891862 93.92917149 58.90914417 96.25219727 55.25964355 C97.40973072 53.44054712 98.56664269 51.62105506 99.72290039 49.80114746 C102.79975834 44.95992827 105.88918522 40.1272796 108.99536133 35.30480957 C109.64504883 34.29289551 110.29473633 33.28098145 110.96411133 32.23840332 C112.21825544 30.28552177 113.47594226 28.33490978 114.73754883 26.38684082 C115.57672852 25.07779785 115.57672852 25.07779785 116.43286133 23.74230957 C116.93027832 22.97112793 117.42769531 22.19994629 117.94018555 21.40539551 C119.16608947 19.57961366 119.16608947 19.57961366 119.00317383 17.50793457 C104.0956667 17.32099588 89.18825042 17.17995232 74.27982044 17.09343719 C67.35737221 17.05219718 60.43565247 16.99598263 53.51367188 16.90441895 C46.83517618 16.81611824 40.15759405 16.76967886 33.47849083 16.74891663 C30.92865766 16.73411861 28.37886661 16.70522115 25.82935524 16.66209412 C22.26113533 16.60412777 18.69605531 16.59601714 15.12744141 16.59973145 C14.07008286 16.57096924 13.0127243 16.54220703 11.92332458 16.51257324 C10.94882355 16.52357056 9.97432251 16.53456787 8.97029114 16.54589844 C8.12685056 16.53852409 7.28340998 16.53114975 6.41441059 16.52355194 C2.37082258 18.17433873 0.98879965 21.77189519 -0.99682617 25.50793457 Z " fill="#010000" transform="translate(248.996826171875,-0.5079345703125)"/>
<path d="M0 0 C1.50506 0.05023348 3.01028164 0.09584822 4.515625 0.13671875 C8.18047639 0.24620266 11.83919465 0.4183006 15.5 0.625 C13.33772976 3.93505963 11.20392492 7.14298706 8.58203125 10.10546875 C8.05472412 10.70625244 7.52741699 11.30703613 6.98413086 11.92602539 C6.15667358 12.85983032 6.15667358 12.85983032 5.3125 13.8125 C1.45036128 18.21722211 -2.37434024 22.63471671 -6.0625 27.1875 C-10.42504454 32.57089591 -14.93121987 37.82163256 -19.44921875 43.07421875 C-25.67522367 50.31316124 -31.8608624 57.58365909 -37.875 65 C-42.04156423 70.12233524 -46.36201281 75.09917378 -50.70043945 80.07543945 C-54.6224954 84.58439957 -58.43031865 89.17198064 -62.19140625 93.81640625 C-65.41929353 97.74339602 -68.74231422 101.58582059 -72.06103516 105.43603516 C-75.0725803 108.93754253 -78.03066209 112.47295521 -80.9375 116.0625 C-85.07996379 121.16727843 -89.38119099 126.12122682 -93.70068359 131.07568359 C-97.62501658 135.58734733 -101.43434037 140.17834506 -105.19921875 144.82421875 C-108.87772387 149.30212736 -112.67039656 153.68099295 -116.44921875 158.07421875 C-122.67522367 165.31316124 -128.8608624 172.58365909 -134.875 180 C-139.04156423 185.12233524 -143.36201281 190.09917378 -147.70043945 195.07543945 C-151.6224954 199.58439957 -155.43031865 204.17198064 -159.19140625 208.81640625 C-162.41929353 212.74339602 -165.74231422 216.58582059 -169.06103516 220.43603516 C-172.0725803 223.93754253 -175.03066209 227.47295521 -177.9375 231.0625 C-182.07402794 236.15996365 -186.36748053 241.10833278 -190.68310547 246.05371094 C-194.76184879 250.73951744 -198.71559288 255.50475233 -202.59765625 260.35546875 C-204.45902108 262.57611139 -206.41990932 264.60976738 -208.5 266.625 C-206.50322726 260.3382515 -204.19327239 254.25564715 -201.62109375 248.18359375 C-201.25256287 247.30579758 -200.88403198 246.4280014 -200.5043335 245.52360535 C-199.31878802 242.70179224 -198.12853189 239.88200134 -196.9375 237.0625 C-195.30636119 233.19440216 -193.6764387 229.32579288 -192.046875 225.45703125 C-191.64917404 224.51382019 -191.25147308 223.57060913 -190.84172058 222.59881592 C-188.60880373 217.29401376 -186.41030844 211.9777684 -184.265625 206.63671875 C-183.81775635 205.52949463 -183.3698877 204.42227051 -182.90844727 203.28149414 C-182.12261958 201.3303599 -181.34627955 199.37536361 -180.58178711 197.41577148 C-178.56747162 192.443655 -176.61370353 189.2252829 -172.5 185.625 C-166.7149876 179.47602987 -161.21671218 173.14163469 -155.9140625 166.57421875 C-153.16138127 163.2113153 -150.33818231 159.91570431 -147.5 156.625 C-143.94528455 152.50048294 -140.43207214 148.35291495 -137 144.125 C-133.0662143 139.27903211 -129.01552241 134.54401472 -124.94140625 129.81640625 C-121.91041716 126.29182097 -118.93007419 122.73451168 -116 119.125 C-111.61287098 113.72423828 -107.08776588 108.450323 -102.55078125 103.17578125 C-96.30572679 95.91468997 -90.1036885 88.61946571 -84.0625 81.1875 C-79.65086945 75.76929421 -75.10676358 70.4722915 -70.55078125 65.17578125 C-64.30572679 57.91468997 -58.1036885 50.61946571 -52.0625 43.1875 C-47.65203526 37.77072601 -43.10905849 32.47514793 -38.5546875 27.1796875 C-35.60865492 23.75419889 -32.67387972 20.319415 -29.75 16.875 C-28.48678966 15.38933753 -27.22258763 13.90426623 -25.93359375 12.44091797 C-24.38487571 10.56355384 -24.38487571 10.56355384 -22.97265625 8.03173828 C-16.99518484 -1.28579372 -10.0011797 -0.58171919 0 0 Z " fill="#FB9707" transform="translate(358.5,187.375)"/>
<path d="M0 0 C1.49249268 0.01571045 1.49249268 0.01571045 3.01513672 0.03173828 C4.6296875 0.04140625 4.6296875 0.04140625 6.27685547 0.05126953 C7.40478516 0.06802734 8.53271484 0.08478516 9.69482422 0.10205078 C11.39832031 0.11558594 11.39832031 0.11558594 13.13623047 0.12939453 C15.94763721 0.1530198 18.7586272 0.18596065 21.56982422 0.22705078 C19.9469422 5.72276625 17.49682561 10.64993967 14.93223572 15.74946594 C14.45754036 16.70127107 13.982845 17.6530762 13.49376494 18.63372391 C11.90304401 21.82079911 10.30662305 25.00498412 8.71020508 28.18920898 C7.5683521 30.47398787 6.42684552 32.7589399 5.28565979 35.04405212 C2.50798011 40.60375646 -0.27340571 46.16159282 -3.05652673 51.71857486 C-6.29603741 58.18720484 -9.53135942 64.65792659 -12.7665196 71.12873318 C-18.53661269 82.66941968 -24.31056566 94.20817069 -30.08666992 105.74584961 C-35.69537073 116.94914997 -41.30125664 128.1538529 -46.90405273 139.36010742 C-47.24945337 140.05094865 -47.59485401 140.74178988 -47.95072133 141.45356569 C-48.2955177 142.14319878 -48.64031406 142.83283186 -48.9955588 143.54336292 C-55.37136859 156.29567156 -61.74980634 169.04666413 -68.12947522 181.79704255 C-70.38787051 186.31081252 -72.64548118 190.82497441 -74.9028492 195.33925819 C-77.93694143 201.406691 -80.97326079 207.47300435 -84.01108742 213.5385685 C-85.12886784 215.77119681 -86.24596202 218.00416884 -87.36233902 220.23749924 C-88.87956916 223.2724466 -90.39923478 226.30616151 -91.91957092 229.33955383 C-92.5901803 230.6830955 -92.5901803 230.6830955 -93.27433735 232.05377942 C-93.67916889 232.86021805 -94.08400043 233.66665668 -94.50109959 234.49753284 C-94.85201619 235.19866162 -95.20293279 235.8997904 -95.56448323 236.6221655 C-96.43017578 238.22705078 -96.43017578 238.22705078 -97.43017578 239.22705078 C-99.21088824 239.31431301 -100.99500718 239.33404119 -102.77783203 239.32470703 C-103.85742188 239.32148438 -104.93701172 239.31826172 -106.04931641 239.31494141 C-107.185625 239.3065625 -108.32193359 239.29818359 -109.49267578 239.28955078 C-110.63285156 239.28503906 -111.77302734 239.28052734 -112.94775391 239.27587891 C-115.77527929 239.26404826 -118.60270218 239.24756488 -121.43017578 239.22705078 C-120.85648245 235.84711101 -120.03279957 233.05732812 -118.50109959 229.99416828 C-118.09626805 229.17729866 -117.69143651 228.36042904 -117.27433735 227.5188058 C-116.82726443 226.63203424 -116.38019151 225.74526269 -115.91957092 224.83161926 C-115.44643556 223.88137412 -114.97330019 222.93112898 -114.48582739 221.95208853 C-112.89623836 218.7632729 -111.29809275 215.578824 -109.69995117 212.39428711 C-108.55970192 210.11136117 -107.41996931 207.82817711 -106.28071594 205.54475403 C-103.50478912 199.98446071 -100.72327955 194.42699169 -97.93911678 188.87081865 C-94.69830645 182.40281793 -91.46360166 175.93177061 -88.22908466 169.46062108 C-82.45908983 157.91744183 -76.68315743 146.37724371 -70.90405273 134.83862305 C-65.29338617 123.63630277 -59.68750159 112.43160596 -54.08666992 101.22436523 C-47.98943371 89.02383908 -41.8897126 76.82456174 -35.78550524 64.62752169 C-35.1350378 63.32779414 -34.4845709 62.02806633 -33.83410454 60.72833824 C-33.51404416 60.08882102 -33.19398378 59.4493038 -32.8642246 58.79040727 C-30.60607331 54.27798818 -28.34963619 49.76471435 -26.09379768 45.25113869 C-23.05996094 39.18112526 -20.0217869 33.11330183 -16.98066521 27.04693413 C-15.8626079 24.81507605 -14.74592136 22.5825307 -13.63067627 20.34926605 C-12.11339025 17.31149143 -10.59124006 14.27620531 -9.06776428 11.24153137 C-8.62292208 10.34806765 -8.17807988 9.45460393 -7.71975762 8.53406554 C-7.31231833 7.72501917 -6.90487905 6.91597279 -6.48509312 6.08240986 C-6.13401416 5.38111873 -5.78293521 4.6798276 -5.4212175 3.95728523 C-3.90835888 1.31602398 -3.09346742 0.28902197 0 0 Z " fill="#FBFBFA" transform="translate(255.43017578125,16.77294921875)"/>
</svg>
